<svg xmlns="http://www.w3.org/2000/svg" viewBox="0 0 1140 779" role="img" aria-labelledby="title desc">
  <title id="title">Dynamo MCC motor bus preview</title>
  <desc id="desc">Preview of a Dynamo-driven MCC motor bus one-line layout populated from structured motor data.</desc>
  <rect width="1140" height="779" fill="#ffffff"/>
  <defs>
    <style>
      .ink { stroke: #1f2933; fill: none; stroke-width: 1.35; stroke-linecap: round; stroke-linejoin: round; }
      .thin { stroke: #374151; fill: none; stroke-width: .9; stroke-linecap: round; stroke-linejoin: round; }
      .orange { fill: #ff5f00; }
      .green { fill: #35b44a; stroke: #166534; stroke-width: .8; }
      .muted { fill: #2c3440; font-family: Arial, Helvetica, sans-serif; }
      .small { fill: #303946; font-family: Arial, Helvetica, sans-serif; }
      .panel { fill: #ffffff; stroke: #d7dde5; stroke-width: 1.2; }
      .line { stroke: #d7dde5; stroke-width: 1; }
    </style>
    <symbol id="feeder" viewBox="0 0 58 210">
      <circle class="green" cx="29" cy="10" r="4"/>
      <path class="ink" d="M29 14v30"/>
      <path class="ink" d="M22 45c0-5 4-7 7-7s7 2 7 7-4 7-7 7-7 2-7 7 4 7 7 7 7-2 7-7"/>
      <path class="ink" d="M29 66v22"/>
      <path class="ink" d="M20 88l18 18"/>
      <path class="ink" d="M38 88l-18 18"/>
      <path class="ink" d="M29 106v24"/>
      <rect class="ink" x="22" y="130" width="14" height="24"/>
      <path class="thin" d="M29 136v10M25 141h8"/>
      <path class="ink" d="M29 154v18"/>
      <circle class="ink" cx="29" cy="188" r="11"/>
      <text x="29" y="193" text-anchor="middle" class="small" font-size="10">M</text>
    </symbol>
  </defs>

  <g transform="translate(16 16)">
    <g transform="translate(0 0)">
      <polygon points="0,0 50,20 50,80 0,61" fill="#c7473a"/>
      <polygon points="50,20 78,0 78,61 50,80" fill="#3aa0c9"/>
      <polygon points="0,0 78,0 50,20" fill="#6e6b47"/>
      <polygon points="0,61 50,80 78,61 28,42" fill="#8e4f6f"/>
      <circle cx="15" cy="15" r="5" fill="#fff"/>
      <circle cx="62" cy="16" r="5" fill="#fff"/>
      <circle cx="15" cy="64" r="5" fill="#fff"/>
      <circle cx="62" cy="64" r="5" fill="#fff"/>
    </g>
    <rect x="94" y="1" width="54" height="13" rx="6" fill="#8b8f43"/>
    <rect x="94" y="20" width="54" height="13" rx="6" fill="#d83a37"/>
    <rect x="94" y="39" width="54" height="13" rx="6" fill="#37a9d8"/>
    <rect x="137" y="34" width="28" height="28" rx="2" fill="#44bd52" stroke="#116529" stroke-width="2"/>
    <path d="M148 41v14l11-7-11-7Z" fill="#113b20"/>

    <text x="0" y="116" class="muted" font-size="31" font-weight="700">Dynamo</text>
    <text x="0" y="148" class="muted" font-size="31" font-weight="700">Dynamo Player</text>
    <text x="0" y="196" class="small" font-size="13">
      <tspan x="0">Automate and populate MCC motor</tspan>
      <tspan x="0" dy="19">bus lines and motor parameters</tspan>
      <tspan x="0" dy="19">in Revit from structured data.</tspan>
    </text>
    <g transform="translate(0 246)" class="orange">
      <text x="24" y="6" class="small" font-size="13">Populate Connectors</text>
      <text x="24" y="34" class="small" font-size="13">Update Parameters</text>
      <text x="24" y="62" class="small" font-size="13">Sync Data</text>
      <path d="M5 0v14M15 0v14M2 14h16v11a8 8 0 0 1-16 0V14Z" fill="none" stroke="#ff5f00" stroke-width="1.4"/>
      <path d="M0 31h18M0 45h18M5 31a4 4 0 1 0 .1 0M13 45a4 4 0 1 0 .1 0" fill="none" stroke="#ff5f00" stroke-width="1.4"/>
      <path d="M3 58a10 10 0 0 1 16-5M19 50v8h-8M17 68a10 10 0 0 1-16 5M1 76v-8h8" fill="none" stroke="#ff5f00" stroke-width="1.4"/>
    </g>
  </g>

  <g transform="translate(124 7)">
    <rect class="panel" x="0" y="0" width="762" height="270" rx="4"/>
    <g transform="translate(125 15)">
      <g transform="translate(0 0)">
        <text x="29" y="0" text-anchor="middle" class="orange" font-size="11" font-weight="700">D01</text>
        <use href="#feeder" x="0" y="5" width="58" height="210"/>
        <text x="29" y="218" text-anchor="middle" class="orange" font-size="11" font-weight="700">PUMP-01</text>
        <text x="29" y="232" text-anchor="middle" class="small" font-size="8">BASIN SUMP</text>
      </g>
      <g transform="translate(66 0)">
        <text x="29" y="0" text-anchor="middle" class="orange" font-size="11" font-weight="700">D02</text>
        <use href="#feeder" x="0" y="5" width="58" height="210"/>
        <text x="29" y="218" text-anchor="middle" class="orange" font-size="11" font-weight="700">PUMP-02</text>
        <text x="29" y="232" text-anchor="middle" class="small" font-size="8">BASIN SUMP</text>
      </g>
      <g transform="translate(132 0)">
        <text x="29" y="0" text-anchor="middle" class="orange" font-size="11" font-weight="700">D03</text>
        <use href="#feeder" x="0" y="5" width="58" height="210"/>
        <text x="29" y="218" text-anchor="middle" class="orange" font-size="11" font-weight="700">PUMP-03</text>
        <text x="29" y="232" text-anchor="middle" class="small" font-size="8">DISCHARGE</text>
      </g>
      <g transform="translate(198 0)">
        <text x="29" y="0" text-anchor="middle" class="orange" font-size="11" font-weight="700">D04</text>
        <use href="#feeder" x="0" y="5" width="58" height="210"/>
        <text x="29" y="218" text-anchor="middle" class="orange" font-size="11" font-weight="700">PUMP-04</text>
        <text x="29" y="232" text-anchor="middle" class="small" font-size="8">DISCHARGE</text>
      </g>
      <g transform="translate(264 0)">
        <text x="29" y="0" text-anchor="middle" class="orange" font-size="11" font-weight="700">D05</text>
        <use href="#feeder" x="0" y="5" width="58" height="210"/>
        <text x="29" y="218" text-anchor="middle" class="orange" font-size="11" font-weight="700">PUMP-05</text>
        <text x="29" y="232" text-anchor="middle" class="small" font-size="8">DISCHARGE</text>
      </g>
      <g transform="translate(330 0)">
        <text x="29" y="0" text-anchor="middle" class="orange" font-size="11" font-weight="700">D06</text>
        <use href="#feeder" x="0" y="5" width="58" height="210"/>
        <text x="29" y="218" text-anchor="middle" class="orange" font-size="11" font-weight="700">PUMP-06</text>
        <text x="29" y="232" text-anchor="middle" class="small" font-size="8">SUBMERSIBLE</text>
      </g>
      <g transform="translate(396 0)">
        <text x="29" y="0" text-anchor="middle" class="orange" font-size="11" font-weight="700">D07</text>
        <use href="#feeder" x="0" y="5" width="58" height="210"/>
        <text x="29" y="218" text-anchor="middle" class="orange" font-size="11" font-weight="700">PUMP-07</text>
        <text x="29" y="232" text-anchor="middle" class="small" font-size="8">SUBMERSIBLE</text>
      </g>
      <g transform="translate(462 0)">
        <text x="29" y="0" text-anchor="middle" class="orange" font-size="11" font-weight="700">D08</text>
        <path class="ink" d="M29 19v157h28v32"/>
        <circle class="green" cx="29" cy="14" r="4"/>
        <text x="29" y="218" text-anchor="middle" class="orange" font-size="11" font-weight="700">SPARE-01</text>
        <text x="29" y="232" text-anchor="middle" class="small" font-size="8">SPACE</text>
      </g>
      <g transform="translate(528 0)">
        <text x="29" y="0" text-anchor="middle" class="orange" font-size="11" font-weight="700">D09</text>
        <use href="#feeder" x="0" y="5" width="58" height="210"/>
        <text x="29" y="218" text-anchor="middle" class="orange" font-size="11" font-weight="700">PUMP-08</text>
        <text x="29" y="232" text-anchor="middle" class="small" font-size="8">DISCHARGE</text>
      </g>
    </g>
  </g>

  <g transform="translate(124 282)">
    <rect class="panel" x="0" y="0" width="762" height="236" rx="4"/>
    <g transform="translate(20 12)">
      <g transform="translate(0 0)"><text x="29" y="0" text-anchor="middle" class="orange" font-size="11" font-weight="700">D10</text><use href="#feeder" x="0" y="5" width="52" height="188"/><text x="29" y="200" text-anchor="middle" class="orange" font-size="10" font-weight="700">PUMP-09</text></g>
      <g transform="translate(65 0)"><text x="29" y="0" text-anchor="middle" class="orange" font-size="11" font-weight="700">D11</text><use href="#feeder" x="0" y="5" width="52" height="188"/><text x="29" y="200" text-anchor="middle" class="orange" font-size="10" font-weight="700">PUMP-10</text></g>
      <g transform="translate(130 0)"><text x="29" y="0" text-anchor="middle" class="orange" font-size="11" font-weight="700">D12</text><use href="#feeder" x="0" y="5" width="52" height="188"/><text x="29" y="200" text-anchor="middle" class="orange" font-size="10" font-weight="700">PUMP-11</text></g>
      <g transform="translate(195 0)"><text x="29" y="0" text-anchor="middle" class="orange" font-size="11" font-weight="700">D13</text><use href="#feeder" x="0" y="5" width="52" height="188"/><text x="29" y="200" text-anchor="middle" class="orange" font-size="10" font-weight="700">PUMP-12</text></g>
      <g transform="translate(260 0)"><text x="29" y="0" text-anchor="middle" class="orange" font-size="11" font-weight="700">D14</text><use href="#feeder" x="0" y="5" width="52" height="188"/><text x="29" y="200" text-anchor="middle" class="orange" font-size="10" font-weight="700">PUMP-13</text></g>
      <g transform="translate(325 0)"><text x="29" y="0" text-anchor="middle" class="orange" font-size="11" font-weight="700">D15</text><use href="#feeder" x="0" y="5" width="52" height="188"/><text x="29" y="200" text-anchor="middle" class="orange" font-size="10" font-weight="700">PUMP-14</text></g>
      <g transform="translate(390 0)"><text x="29" y="0" text-anchor="middle" class="orange" font-size="11" font-weight="700">D16</text><use href="#feeder" x="0" y="5" width="52" height="188"/><text x="29" y="200" text-anchor="middle" class="orange" font-size="10" font-weight="700">PUMP-15</text></g>
      <g transform="translate(455 0)"><text x="29" y="0" text-anchor="middle" class="orange" font-size="11" font-weight="700">D17</text><use href="#feeder" x="0" y="5" width="52" height="188"/><text x="29" y="200" text-anchor="middle" class="orange" font-size="10" font-weight="700">PUMP-16</text></g>
      <g transform="translate(520 0)"><text x="29" y="0" text-anchor="middle" class="orange" font-size="11" font-weight="700">D18</text><use href="#feeder" x="0" y="5" width="52" height="188"/><text x="29" y="200" text-anchor="middle" class="orange" font-size="10" font-weight="700">PUMP-17</text></g>
      <g transform="translate(585 0)"><text x="29" y="0" text-anchor="middle" class="orange" font-size="11" font-weight="700">D19</text><use href="#feeder" x="0" y="5" width="52" height="188"/><text x="29" y="200" text-anchor="middle" class="orange" font-size="10" font-weight="700">PUMP-18</text></g>
      <g transform="translate(650 0)"><text x="29" y="0" text-anchor="middle" class="orange" font-size="11" font-weight="700">D20</text><use href="#feeder" x="0" y="5" width="52" height="188"/><text x="29" y="200" text-anchor="middle" class="orange" font-size="10" font-weight="700">PUMP-19</text></g>
    </g>
  </g>

  <g transform="translate(124 526)">
    <rect class="panel" x="0" y="0" width="762" height="219" rx="4"/>
    <g transform="translate(20 12)">
      <g transform="translate(0 0)"><text x="29" y="0" text-anchor="middle" class="orange" font-size="11" font-weight="700">D21</text><use href="#feeder" x="0" y="5" width="50" height="174"/><text x="29" y="186" text-anchor="middle" class="orange" font-size="10" font-weight="700">PUMP-20</text></g>
      <g transform="translate(65 0)"><text x="29" y="0" text-anchor="middle" class="orange" font-size="11" font-weight="700">D22</text><use href="#feeder" x="0" y="5" width="50" height="174"/><text x="29" y="186" text-anchor="middle" class="orange" font-size="10" font-weight="700">PUMP-21</text></g>
      <g transform="translate(130 0)"><text x="29" y="0" text-anchor="middle" class="orange" font-size="11" font-weight="700">D23</text><use href="#feeder" x="0" y="5" width="50" height="174"/><text x="29" y="186" text-anchor="middle" class="orange" font-size="10" font-weight="700">PUMP-22</text></g>
      <g transform="translate(195 0)"><text x="29" y="0" text-anchor="middle" class="orange" font-size="11" font-weight="700">D24</text><use href="#feeder" x="0" y="5" width="50" height="174"/><text x="29" y="186" text-anchor="middle" class="orange" font-size="10" font-weight="700">PUMP-23</text></g>
      <g transform="translate(260 0)"><text x="29" y="0" text-anchor="middle" class="orange" font-size="11" font-weight="700">D25</text><use href="#feeder" x="0" y="5" width="50" height="174"/><text x="29" y="186" text-anchor="middle" class="orange" font-size="10" font-weight="700">PUMP-24</text></g>
      <g transform="translate(325 0)"><text x="29" y="0" text-anchor="middle" class="orange" font-size="11" font-weight="700">D26</text><use href="#feeder" x="0" y="5" width="50" height="174"/><text x="29" y="186" text-anchor="middle" class="orange" font-size="10" font-weight="700">PUMP-25</text></g>
      <g transform="translate(390 0)"><text x="29" y="0" text-anchor="middle" class="orange" font-size="11" font-weight="700">D27</text><use href="#feeder" x="0" y="5" width="50" height="174"/><text x="29" y="186" text-anchor="middle" class="orange" font-size="10" font-weight="700">PUMP-26</text></g>
      <g transform="translate(455 0)"><text x="29" y="0" text-anchor="middle" class="orange" font-size="11" font-weight="700">D28</text><use href="#feeder" x="0" y="5" width="50" height="174"/><text x="29" y="186" text-anchor="middle" class="orange" font-size="10" font-weight="700">PUMP-27</text></g>
      <g transform="translate(520 0)"><text x="29" y="0" text-anchor="middle" class="orange" font-size="11" font-weight="700">D29</text><use href="#feeder" x="0" y="5" width="50" height="174"/><text x="29" y="186" text-anchor="middle" class="orange" font-size="10" font-weight="700">PUMP-28</text></g>
      <g transform="translate(585 0)"><text x="29" y="0" text-anchor="middle" class="orange" font-size="11" font-weight="700">D30</text><use href="#feeder" x="0" y="5" width="50" height="174"/><text x="29" y="186" text-anchor="middle" class="orange" font-size="10" font-weight="700">PUMP-29</text></g>
      <g transform="translate(650 0)"><text x="29" y="0" text-anchor="middle" class="orange" font-size="11" font-weight="700">D31</text><use href="#feeder" x="0" y="5" width="50" height="174"/><text x="29" y="186" text-anchor="middle" class="orange" font-size="10" font-weight="700">PUMP-30</text></g>
    </g>
  </g>

  <g transform="translate(904 6)">
    <rect class="panel" x="0" y="0" width="230" height="220" rx="4"/>
    <text x="14" y="24" class="orange" font-size="16" font-weight="700" font-family="Arial, Helvetica, sans-serif">MCC SUMMARY</text>
    <g font-size="11" class="small">
      <path class="line" d="M14 38h202M14 60h202M14 82h202M14 104h202M14 126h202M14 148h202M14 170h202M14 192h202"/>
      <path class="line" d="M14 38v154M136 38v154M216 38v154"/>
      <text x="24" y="53">MCC NAME</text><text x="150" y="53">MCC-1</text>
      <text x="24" y="75">VOLTAGE</text><text x="150" y="75">480 V</text>
      <text x="24" y="97">PHASE</text><text x="150" y="97">3</text>
      <text x="24" y="119">FREQUENCY</text><text x="150" y="119">60 Hz</text>
      <text x="24" y="141">TOTAL FEEDERS</text><text x="150" y="141">31</text>
      <text x="24" y="163">POPULATED</text><text x="150" y="163">29</text>
      <text x="24" y="185">SPARES</text><text x="150" y="185">2</text>
    </g>
  </g>

  <g transform="translate(904 236)">
    <rect class="panel" x="0" y="0" width="230" height="184" rx="4"/>
    <text x="14" y="24" class="orange" font-size="16" font-weight="700" font-family="Arial, Helvetica, sans-serif">MOTOR DATA</text>
    <text x="106" y="24" class="orange" font-size="9" font-family="Arial, Helvetica, sans-serif">(populated)</text>
    <g font-size="10" class="small">
      <path class="line" d="M14 40h202M14 62h202M14 84h202M14 106h202M14 128h202M14 150h202"/>
      <path class="line" d="M14 40v110M72 40v110M106 40v110M148 40v110M184 40v110M216 40v110"/>
      <text x="28" y="55">TAG</text><text x="82" y="55">HP</text><text x="116" y="55">FLA</text><text x="156" y="55">VOLT</text><text x="190" y="55">RPM</text>
      <text x="24" y="77">PUMP-01</text><text x="84" y="77">10</text><text x="116" y="77">12.8</text><text x="158" y="77">480</text><text x="190" y="77">1760</text>
      <text x="24" y="99">PUMP-02</text><text x="84" y="99">15</text><text x="116" y="99">18.6</text><text x="158" y="99">480</text><text x="190" y="99">1760</text>
      <text x="24" y="121">PUMP-03</text><text x="84" y="121">20</text><text x="116" y="121">24.2</text><text x="158" y="121">480</text><text x="190" y="121">1765</text>
      <text x="24" y="143">PUMP-04</text><text x="84" y="143">30</text><text x="116" y="143">36.0</text><text x="158" y="143">480</text><text x="190" y="143">1775</text>
    </g>
  </g>

  <g transform="translate(904 430)">
    <rect class="panel" x="0" y="0" width="230" height="190" rx="4"/>
    <text x="14" y="24" class="orange" font-size="16" font-weight="700" font-family="Arial, Helvetica, sans-serif">PARAMETERS</text>
    <text x="116" y="24" class="orange" font-size="9" font-family="Arial, Helvetica, sans-serif">(updated)</text>
    <g class="small" font-size="12">
      <text x="26" y="54">Voltage</text><text x="26" y="74">Phase</text><text x="26" y="94">HP</text>
      <text x="26" y="114">FLA</text><text x="26" y="134">RPM</text><text x="26" y="154">Service Factor</text>
      <circle class="orange" cx="18" cy="50" r="3"/><circle class="orange" cx="18" cy="70" r="3"/><circle class="orange" cx="18" cy="90" r="3"/>
      <circle class="orange" cx="18" cy="110" r="3"/><circle class="orange" cx="18" cy="130" r="3"/><circle class="orange" cx="18" cy="150" r="3"/>
    </g>
  </g>

  <g transform="translate(904 630)">
    <rect class="panel" x="0" y="0" width="230" height="116" rx="4"/>
    <text x="14" y="25" class="orange" font-size="16" font-weight="700" font-family="Arial, Helvetica, sans-serif">.DYN WORKFLOW</text>
    <text x="14" y="49" class="small" font-size="12" font-weight="700">MCC_Motor_Data_Populator.dyn</text>
    <g transform="translate(22 65)" class="orange" stroke="#ff5f00" stroke-width="1.2" fill="#fff">
      <rect x="0" y="0" width="20" height="13"/>
      <rect x="58" y="0" width="20" height="13"/>
      <rect x="31" y="30" width="20" height="13"/>
      <rect x="118" y="17" width="20" height="13"/>
      <rect x="168" y="0" width="20" height="13"/>
      <path d="M20 6h38M38 6v30M78 6l40 17M138 23h30"/>
    </g>
  </g>

  <g transform="translate(124 755)" class="small" font-size="10">
    <text x="0" y="9" font-weight="700">LEGEND:</text>
    <circle class="green" cx="85" cy="5" r="5"/><text x="100" y="9">POPULATED</text>
    <circle class="ink" cx="190" cy="5" r="9"/><text x="187" y="9" font-size="8">M</text><text x="206" y="9">MOTOR</text>
    <rect class="ink" x="292" y="-5" width="12" height="20"/><text x="314" y="9">CIRCUIT BREAKER</text>
    <path class="ink" d="M436 -5c-4 0-7 3-7 7s3 7 7 7 7 3 7 7-3 7-7 7"/><text x="456" y="9">DISCONNECT SWITCH</text>
  </g>
</svg>
